<svg viewBox="0 0 16 16" fill="none" xmlns="http://www.w3.org/2000/svg" role="graphics-symbol" aria-hidden="true" width="16" height="16" color="currentColor"><path d="M15.1824 4.37784L15.1825 4.37808C15.3345 4.94539 15.4169 5.85979 15.4589 6.6683C15.4794 7.06507 15.4897 7.42395 15.4949 7.68368C15.4974 7.81343 15.4987 7.91815 15.4994 7.99015L15.4999 8.07257L15.5 8.09352L15.5 8.09862L15.5 8.09978V8.09997V8.10001V8.10022L15.5 8.10138L15.5 8.10648L15.4999 8.12743L15.4994 8.20985C15.4987 8.28185 15.4974 8.38657 15.4949 8.51632C15.4897 8.77605 15.4794 9.13493 15.4589 9.5317C15.4169 10.3402 15.3345 11.2546 15.1825 11.8219L15.1824 11.8222C15.0448 12.3368 14.6413 12.7417 14.121 12.883C13.8598 12.9526 13.3579 13.0131 12.7101 13.0603C12.0757 13.1066 11.3414 13.1377 10.6415 13.1584C9.94245 13.1792 9.28169 13.1896 8.79545 13.1948C8.55243 13.1974 8.35324 13.1987 8.21494 13.1994L8.05535 13.1999L8.01384 13.2L8.00336 13.2L8.00078 13.2H8.00016H8.00002L8 13.7L7.99998 13.2H7.99984H7.99922L7.99664 13.2L7.98616 13.2L7.94465 13.1999L7.78506 13.1994C7.64676 13.1987 7.44757 13.1974 7.20455 13.1948C6.71831 13.1896 6.05755 13.1792 5.35848 13.1584C4.65861 13.1377 3.92435 13.1066 3.28988 13.0603C2.64213 13.0131 2.14016 12.9526 1.87896 12.883C1.35866 12.7417 0.955212 12.3368 0.817566 11.8222L0.817501 11.8219C0.665456 11.2546 0.583054 10.3402 0.541148 9.5317C0.520583 9.13493 0.51028 8.77605 0.505129 8.51632C0.502555 8.38657 0.501273 8.28185 0.500634 8.20985L0.500077 8.12743L0.500009 8.10648L0.500001 8.10138L0.5 8.10022L0.5 8.10003V8.10001V8.09999V8.09997L0.5 8.09978L0.500001 8.09862L0.500009 8.09352L0.500077 8.07257L0.500634 7.99015C0.501273 7.91815 0.502555 7.81343 0.505129 7.68368C0.51028 7.42395 0.520583 7.06507 0.541148 6.6683C0.583054 5.85979 0.665456 4.94539 0.817501 4.37808L0.817566 4.37784C0.955213 3.86322 1.35867 3.45827 1.87898 3.31703C2.14018 3.2474 2.64214 3.18688 3.28988 3.13966C3.92435 3.09341 4.65861 3.06234 5.35848 3.04155C6.05755 3.02079 6.71831 3.01039 7.20455 3.00519C7.44757 3.00259 7.64676 3.0013 7.78506 3.00065L7.94465 3.00008L7.98616 3.00001L7.99664 3L7.99922 3L7.99984 3H7.99998L8 2.5L8.00002 3H8.00016L8.00078 3L8.00336 3L8.01384 3.00001L8.05535 3.00008L8.21494 3.00065C8.35324 3.0013 8.55243 3.00259 8.79545 3.00519C9.28169 3.01039 9.94245 3.02079 10.6415 3.04155C11.3414 3.06234 12.0757 3.09341 12.7101 3.13966C13.3579 3.18689 13.8599 3.24741 14.121 3.31704C14.6413 3.45829 15.0448 3.86323 15.1824 4.37784Z" stroke="currentColor"></path><path fill-rule="evenodd" clip-rule="evenodd" d="M6.4668 10.466V6.03394L10.3873 8.24994L6.4668 10.466Z" fill="currentColor"></path></svg>